<svg xmlns="http://www.w3.org/2000/svg" viewBox="0 0 1024 1024">
  <defs>
    <linearGradient id="bg" x1="0" y1="0" x2="0" y2="1">
      <stop offset="0" stop-color="#FBBF24"/>
      <stop offset="0.55" stop-color="#F59E0B"/>
      <stop offset="1" stop-color="#D97706"/>
    </linearGradient>
    <linearGradient id="cell" x1="0" y1="0" x2="0" y2="1">
      <stop offset="0" stop-color="#FFFDF7"/>
      <stop offset="1" stop-color="#FCE8B6"/>
    </linearGradient>
    <linearGradient id="core" x1="0" y1="0" x2="0" y2="1">
      <stop offset="0" stop-color="#B45309"/>
      <stop offset="1" stop-color="#7C3A06"/>
    </linearGradient>
    <filter id="lift" x="-20%" y="-20%" width="140%" height="140%">
      <feDropShadow dx="0" dy="10" stdDeviation="16" flood-color="#5A2E05" flood-opacity="0.28"/>
    </filter>
  </defs>
  <rect width="1024" height="1024" rx="224" fill="url(#bg)"/>
  <g filter="url(#lift)">
    <path d="M614.9,452.6L512.0,393.2L409.1,452.6L409.1,571.4L512.0,630.8L614.9,571.4Z" fill="url(#core)"/>
    <path d="M843.5,452.6L740.6,393.2L637.7,452.6L637.7,571.4L740.6,630.8L843.5,571.4Z" fill="url(#cell)"/>
    <path d="M386.3,452.6L283.4,393.2L180.5,452.6L180.5,571.4L283.4,630.8L386.3,571.4Z" fill="url(#cell)"/>
    <path d="M729.2,254.6L626.3,195.2L523.4,254.6L523.4,373.4L626.3,432.8L729.2,373.4Z" fill="url(#cell)"/>
    <path d="M500.6,254.6L397.7,195.2L294.8,254.6L294.8,373.4L397.7,432.8L500.6,373.4Z" fill="url(#cell)"/>
    <path d="M729.2,650.6L626.3,591.2L523.4,650.6L523.4,769.4L626.3,828.8L729.2,769.4Z" fill="url(#cell)"/>
    <path d="M500.6,650.6L397.7,591.2L294.8,650.6L294.8,769.4L397.7,828.8L500.6,769.4Z" fill="url(#cell)"/>
  </g>
</svg>