<svg xmlns="http://www.w3.org/2000/svg" viewBox="0 0 64 64">
  <defs>
    <linearGradient id="bg" x1="0" y1="0" x2="0" y2="1">
      <stop offset="0" stop-color="#FBBF24"/>
      <stop offset="0.55" stop-color="#F59E0B"/>
      <stop offset="1" stop-color="#D97706"/>
    </linearGradient>
    <linearGradient id="cell" x1="0" y1="0" x2="0" y2="1">
      <stop offset="0" stop-color="#FFFDF7"/>
      <stop offset="1" stop-color="#FCE8B6"/>
    </linearGradient>
    <linearGradient id="core" x1="0" y1="0" x2="0" y2="1">
      <stop offset="0" stop-color="#B45309"/>
      <stop offset="1" stop-color="#7C3A06"/>
    </linearGradient>
  </defs>
  <rect width="64" height="64" rx="14" fill="url(#bg)"/>
  <path d="M38.7,28.1L32.0,24.3L25.3,28.1L25.3,35.9L32.0,39.7L38.7,35.9Z" fill="url(#core)"/>
  <path d="M53.6,28.1L46.9,24.3L40.2,28.1L40.2,35.9L46.9,39.7L53.6,35.9Z" fill="url(#cell)"/>
  <path d="M23.8,28.1L17.1,24.3L10.4,28.1L10.4,35.9L17.1,39.7L23.8,35.9Z" fill="url(#cell)"/>
  <path d="M46.2,15.2L39.4,11.4L32.7,15.2L32.7,23.0L39.4,26.8L46.2,23.0Z" fill="url(#cell)"/>
  <path d="M31.3,15.2L24.6,11.4L17.8,15.2L17.8,23.0L24.6,26.8L31.3,23.0Z" fill="url(#cell)"/>
  <path d="M46.2,41.0L39.4,37.2L32.7,41.0L32.7,48.8L39.4,52.6L46.2,48.8Z" fill="url(#cell)"/>
  <path d="M31.3,41.0L24.6,37.2L17.8,41.0L17.8,48.8L24.6,52.6L31.3,48.8Z" fill="url(#cell)"/>
</svg>
